<svg id="Layer_1" data-name="Layer 1" xmlns="http://www.w3.org/2000/svg" viewBox="0 0 454.89 148.36"><title>juanlogo</title><path d="M72.49,169h8.78a8.31,8.31,0,0,1,8.31,8.31v67.52C89.58,266.18,76,278.1,56,278.1c-16.59,0-29.13-8.19-33.15-23.11a8.73,8.73,0,0,1,8.46-10.94h7a5.38,5.38,0,0,1,5.26,4.39c1.28,6.5,5.31,10.31,12.1,10.31,8.05,0,12.07-5.41,12.07-13.92v-71.1A4.73,4.73,0,0,1,72.49,169Z" transform="translate(-22.55 -169)"/><path d="M160.42,273.84H156a4.46,4.46,0,0,1-4.46-4.46v-5.62c-4.36,7.09-12.7,11.08-21.79,11.08-15.7,0-28-9.71-28-29.27V208a2.42,2.42,0,0,1,2.42-2.43h4.32a4.46,4.46,0,0,1,4.46,4.46v34c0,13.82,7.6,20.92,19.06,20.92,11.7,0,19.55-7.22,19.55-21.92v-33A4.46,4.46,0,0,1,156,205.6h4.44a2.43,2.43,0,0,1,2.43,2.43v63.39A2.42,2.42,0,0,1,160.42,273.84Z" transform="translate(-22.55 -169)"/><path d="M210.18,204.48c12.7,0,21.42,6.47,25.4,13.57v-6.93a5.52,5.52,0,0,1,5.52-5.52h2a4,4,0,0,1,3.95,4V269.9a3.94,3.94,0,0,1-3.95,3.94h-2a5.52,5.52,0,0,1-5.52-5.52v-7.18c-4.11,7.35-13,13.82-25.53,13.82-18.18,0-32.25-14.32-32.25-35.49S191.87,204.48,210.18,204.48Zm2.24,9.84c-12.46,0-23,9.09-23,25.15S200,265,212.42,265s23.16-9.34,23.16-25.4C235.58,223.78,224.87,214.32,212.42,214.32Z" transform="translate(-22.55 -169)"/><path d="M316.15,235.24c0-14-7.59-21.05-19-21.05s-19.55,7.22-19.55,21.92V271.8a2,2,0,0,1-2,2h-4.45a4.84,4.84,0,0,1-4.84-4.84V210.45a4.85,4.85,0,0,1,4.84-4.85h4.45a2,2,0,0,1,2,2v5.71a.61.61,0,0,0,1.1.38c4.65-6.09,12.31-9.38,20.82-9.38,15.81,0,27.89,9.72,27.89,29.27V271.8a2,2,0,0,1-2,2H321a4.85,4.85,0,0,1-4.85-4.84Z" transform="translate(-22.55 -169)"/><path d="M388.82,171.88c21.5,0,39.36,10.45,47.85,28.72a4.11,4.11,0,0,1-3.73,5.85h-9.26a17.33,17.33,0,0,1-13.23-6c-5.28-6.22-12.84-9.3-21.79-9.3-18.65,0-32,13.61-32,35.33,0,21.56,13.31,35.33,32,35.33,9,0,16.51-3.08,21.8-9.37a17.3,17.3,0,0,1,13.29-6.08H433a4.11,4.11,0,0,1,3.73,5.84c-8.49,18.39-26.35,28.72-47.87,28.72-30.74,0-54.14-22.48-54.14-54.44S358.08,171.88,388.82,171.88Z" transform="translate(-22.55 -169)"/><path d="M427.35,83.83h4.31a4.29,4.29,0,0,1,4.29,4.29v15.59a4.29,4.29,0,0,1-4.29,4.29h-4.31a5.77,5.77,0,0,1-5.77-5.77V89.6A5.77,5.77,0,0,1,427.35,83.83Z"/><path d="M446.29,76.65h4.31a4.29,4.29,0,0,1,4.29,4.29v22.78A4.29,4.29,0,0,1,450.6,108h-4.31a5.77,5.77,0,0,1-5.77-5.77V82.42A5.77,5.77,0,0,1,446.29,76.65Z"/><path d="M52.56,310.46c0,5.35-2.37,6.9-5.56,6.9a9.6,9.6,0,0,1-2-.21v-1.68a12,12,0,0,0,2.12.17c3.23,0,3.64-2.5,3.64-5.21V293h1.85Z" transform="translate(-22.55 -169)"/><path d="M60.93,293v14.55c0,6.38,3.6,8,7,8,4,0,7-1.68,7-8V293h1.89v14.44c0,7.52-4,9.85-9,9.85-4.73,0-8.85-2.57-8.85-9.54V293Z" transform="translate(-22.55 -169)"/><path d="M83.53,317V293h2.75c3.74,5.77,12.52,19.18,14,21.79h0c-.21-3.47-.17-7-.17-10.91V293h1.88v24H99.52C96,311.46,87,297.5,85.32,294.86h0c.17,3.15.14,6.65.14,11V317Z" transform="translate(-22.55 -169)"/><path d="M111,293v24h-1.85V293Z" transform="translate(-22.55 -169)"/><path d="M137.86,304.84c0,6.55-3.5,12.52-10.9,12.52-6.76,0-10.71-5.46-10.71-12.35s3.81-12.35,11-12.35C133.78,292.66,137.86,297.84,137.86,304.84Zm-19.62.07c0,5.52,3.05,10.73,8.82,10.73,6.21,0,8.81-5.07,8.81-10.77s-3-10.49-8.74-10.49C121,294.38,118.24,299.49,118.24,304.91Z" transform="translate(-22.55 -169)"/><path d="M145,305.8V317h-1.89V293h8.61c4.74,0,7.24,2.54,7.24,6.31a5.44,5.44,0,0,1-4.49,5.63c2.47.58,4.11,2.2,4.11,6.28v.92c0,1.68-.13,3.95.31,4.87H157c-.45-1-.35-2.95-.35-5v-.62c0-3.95-1.16-5.59-5.76-5.59Zm0-1.72h5.8c4.21,0,6.17-1.58,6.17-4.73,0-3-1.92-4.63-5.66-4.63H145Z" transform="translate(-22.55 -169)"/><path d="M177,317l-6.15-23.72h4.73c2.1,9.83,3.64,16.37,4,19h0c.8-3.91,3.43-13.17,4.87-19h4.07c1.29,4.81,4,15,4.67,18.81h0c.77-4.84,3.44-14.72,4.44-18.81h4.34L195.46,317h-4.65c-1.31-5.32-3.73-14.23-4.48-17.88h0c-.81,4-3.26,12.88-4.62,17.88Z" transform="translate(-22.55 -169)"/><path d="M221.2,306.49H209.7v6.84h12.67l-.54,3.68H205.37V293.29h16.35V297h-12v5.82h11.5Z" transform="translate(-22.55 -169)"/><path d="M226.26,293.29h9.93c5.49,0,7.72,2.87,7.72,6a5.33,5.33,0,0,1-3.15,5.15,5.73,5.73,0,0,1,3.86,5.51c0,4.2-3.26,7-8.12,7H226.26Zm9.34,9.53c2.78,0,3.9-1.18,3.9-3.07s-1.38-3-3.64-3h-5.23v6Zm-5,10.7h5.05c2.84,0,4.38-1.24,4.38-3.67,0-2.14-1.38-3.53-4.61-3.53h-4.82Z" transform="translate(-22.55 -169)"/><path d="M258,293.29h9.09c6.82,0,11.34,4.55,11.34,11.59S274,317,266.9,317H258Zm4.45,20.09h4.23c4.9,0,7.14-3.6,7.14-8.47,0-4.16-2.07-8-7.11-8h-4.26Z" transform="translate(-22.55 -169)"/><path d="M298.89,306.49h-11.5v6.84h12.67l-.54,3.68H283.06V293.29h16.35V297h-12v5.82h11.5Z" transform="translate(-22.55 -169)"/><path d="M310.56,317l-8.46-23.72h4.78l3.75,11.26c1.12,3.37,2.08,6.42,2.61,8.76h.07c.49-2.12,1.56-5.28,2.73-8.67L320,293.29h4.56L315.81,317Z" transform="translate(-22.55 -169)"/><path d="M343.48,306.49H332v6.84h12.66L344.1,317H327.65V293.29H344V297H332v5.82h11.5Z" transform="translate(-22.55 -169)"/><path d="M348.54,293.29H353v20h12l-.53,3.68H348.54Z" transform="translate(-22.55 -169)"/><path d="M389.15,305.05c0,6.58-3.86,12.31-11.48,12.31-7.29,0-11.19-5.41-11.19-12.21S370.68,293,378,293C384.83,293,389.15,297.86,389.15,305.05Zm-18.06,0c0,4.8,2.24,8.64,6.75,8.64,4.89,0,6.7-4.06,6.7-8.58,0-4.7-2.06-8.5-6.75-8.5S371.09,300.28,371.09,305.05Z" transform="translate(-22.55 -169)"/><path d="M393.77,293.29h9.54c4.9,0,8.23,2.75,8.23,7.2,0,5-3.71,7.36-8.37,7.36h-4.94V317h-4.46Zm4.46,11h4.46c2.67,0,4.33-1.14,4.33-3.68s-1.83-3.7-4.22-3.7h-4.57Z" transform="translate(-22.55 -169)"/><path d="M431.42,306.49h-11.5v6.84h12.66l-.53,3.68H415.59V293.29h16.35V297h-12v5.82h11.5Z" transform="translate(-22.55 -169)"/><path d="M440.84,307.19V317h-4.36V293.29h10c5.08,0,7.8,2.78,7.8,6.46a5.56,5.56,0,0,1-3.66,5.6c1.44.46,3.18,1.76,3.18,6v1.12a18,18,0,0,0,.34,4.58h-4.25a16.56,16.56,0,0,1-.46-5.24v-.4c0-2.87-.76-4.18-4.73-4.18Zm0-3.59h4.59c3.09,0,4.35-1.17,4.35-3.39s-1.39-3.33-4.14-3.33h-4.8Z" transform="translate(-22.55 -169)"/></svg>