<svg id="Layer_1" data-name="Layer 1" xmlns="http://www.w3.org/2000/svg" viewBox="0 0 413.53 134.87"><title>logorealjuan</title><path d="M88.39,163.41h8a7.55,7.55,0,0,1,7.56,7.56v61.37c0,19.42-12.38,30.25-30.53,30.25-15.07,0-26.48-7.44-30.13-21A7.93,7.93,0,0,1,51,231.64h6.38a4.91,4.91,0,0,1,4.79,4c1.16,5.9,4.82,9.37,11,9.37,7.32,0,11-4.92,11-12.66V167.71A4.31,4.31,0,0,1,88.39,163.41Z" transform="translate(-43 -163.41)"/><path d="M168.33,258.72h-4a4.06,4.06,0,0,1-4.06-4.06v-5.11c-4,6.45-11.55,10.08-19.81,10.08C126.16,259.63,115,250.8,115,233V198.89a2.2,2.2,0,0,1,2.2-2.21h3.93a4.05,4.05,0,0,1,4,4.06v30.92c0,12.57,6.91,19,17.32,19,10.65,0,17.78-6.56,17.78-19.92v-30a4.06,4.06,0,0,1,4.06-4.06h4a2.21,2.21,0,0,1,2.21,2.21v57.63A2.21,2.21,0,0,1,168.33,258.72Z" transform="translate(-43 -163.41)"/><path d="M213.56,195.66c11.55,0,19.47,5.89,23.1,12.34v-6.3a5,5,0,0,1,5-5h1.81a3.59,3.59,0,0,1,3.59,3.59v54.86a3.58,3.58,0,0,1-3.59,3.59h-1.81a5,5,0,0,1-5-5v-6.54c-3.74,6.68-11.78,12.57-23.21,12.57-16.53,0-29.32-13-29.32-32.26S196.92,195.66,213.56,195.66Zm2,9c-11.32,0-20.94,8.26-20.94,22.87s9.62,23.2,20.94,23.2,21.06-8.49,21.06-23.09C236.66,213.21,226.92,204.61,215.6,204.61Z" transform="translate(-43 -163.41)"/><path d="M309.9,223.63c0-12.68-6.9-19.13-17.32-19.13s-17.77,6.56-17.77,19.92v32.45a1.85,1.85,0,0,1-1.85,1.85h-4a4.4,4.4,0,0,1-4.4-4.4V201.09a4.41,4.41,0,0,1,4.4-4.41h4a1.85,1.85,0,0,1,1.85,1.86v5.19a.56.56,0,0,0,1,.35c4.23-5.54,11.19-8.53,18.92-8.53,14.38,0,25.36,8.83,25.36,26.61v34.71a1.85,1.85,0,0,1-1.85,1.85h-3.93a4.41,4.41,0,0,1-4.41-4.4Z" transform="translate(-43 -163.41)"/><path d="M376,166c19.55,0,35.78,9.5,43.5,26.11a3.73,3.73,0,0,1-3.39,5.31h-8.42a15.73,15.73,0,0,1-12-5.45c-4.81-5.65-11.67-8.45-19.81-8.45-17,0-29.06,12.37-29.06,32.12s12.1,32.11,29.06,32.11c8.14,0,15-2.79,19.81-8.52a15.74,15.74,0,0,1,12.08-5.52h8.38a3.74,3.74,0,0,1,3.39,5.31c-7.72,16.71-24,26.11-43.52,26.11-27.94,0-49.21-20.44-49.21-49.49S348,166,376,166Z" transform="translate(-43 -163.41)"/><path d="M389,76.21h3a4.29,4.29,0,0,1,4.29,4.29V93.89A4.29,4.29,0,0,1,392,98.18h-3a5.77,5.77,0,0,1-5.77-5.77V82A5.77,5.77,0,0,1,389,76.21Z"/><path d="M406.24,69.68h3A4.29,4.29,0,0,1,413.53,74V93.89a4.29,4.29,0,0,1-4.29,4.29h-3a5.77,5.77,0,0,1-5.77-5.77v-17A5.77,5.77,0,0,1,406.24,69.68Z"/><path d="M126.68,298l-5.75-21.65h3.4c1.75,7.63,3.82,15.72,4.19,18.18h0c.62-3,3.43-12.71,4.81-18.18h3.06c1.27,4.7,4.08,15.21,4.61,18.05h0c.7-3.93,3.55-13.81,4.67-18.05h3.16L142.65,298h-3.42c-1.28-5-3.89-14.64-4.47-17.45h0c-.67,3.35-3.3,12.59-4.65,17.45Z" transform="translate(-43 -163.41)"/><path d="M166.08,288H155.39v7.25h11.75l-.41,2.72H152.24V276.32h14.34V279H155.39v6.23h10.69Z" transform="translate(-43 -163.41)"/><path d="M171,276.32h8.53c4.7,0,6.8,2.46,6.8,5.43a4.76,4.76,0,0,1-3,4.71A5.31,5.31,0,0,1,187,291.6c0,4-3.08,6.37-7.28,6.37H171Zm8,8.91c3,0,4.13-1.19,4.13-3.19s-1.34-3.12-3.74-3.12h-5.21v6.31Zm-4.82,10.13h5.13c2.69,0,4.43-1.23,4.43-3.79,0-2.24-1.43-3.73-4.88-3.73h-4.68Z" transform="translate(-43 -163.41)"/><path d="M199.25,276.41h8.26c6.2,0,10.31,4.13,10.31,10.53s-4,11-10.47,11h-8.1Zm4,18.25h3.85c4.46,0,6.49-3.27,6.49-7.7,0-3.77-1.88-7.24-6.47-7.24h-3.87Z" transform="translate(-43 -163.41)"/><path d="M236.43,288.4H226v6.22h11.51L237,298H222V276.41H236.9v3.35H226v5.29h10.45Z" transform="translate(-43 -163.41)"/><path d="M247,298l-7.69-21.56h4.34l3.41,10.23c1,3.06,1.89,5.83,2.38,8h.06c.45-1.93,1.42-4.8,2.48-7.88l3.57-10.31h4.13L251.81,298Z" transform="translate(-43 -163.41)"/><path d="M277,288.4H266.51v6.22H278l-.49,3.35H262.58V276.41h14.86v3.35H266.51v5.29H277Z" transform="translate(-43 -163.41)"/><path d="M281.56,276.41h4.05v18.21h10.91L296,298H281.56Z" transform="translate(-43 -163.41)"/><path d="M318.48,287.1c0,6-3.51,11.18-10.44,11.18-6.62,0-10.16-4.91-10.16-11.09s3.81-11.09,10.45-11.09C314.55,276.1,318.48,280.56,318.48,287.1Zm-16.41,0c0,4.37,2,7.86,6.13,7.86,4.44,0,6.09-3.7,6.09-7.8,0-4.27-1.87-7.72-6.13-7.72S302.07,282.76,302.07,287.09Z" transform="translate(-43 -163.41)"/><path d="M322.69,276.41h8.67c4.45,0,7.47,2.5,7.47,6.54,0,4.51-3.36,6.69-7.6,6.69h-4.49V298h-4.05Zm4.05,10h4.05c2.43,0,3.94-1,3.94-3.35s-1.67-3.36-3.83-3.36h-4.16Z" transform="translate(-43 -163.41)"/><path d="M356.91,288.4H346.46v6.22H358l-.49,3.35h-15V276.41h14.86v3.35H346.46v5.29h10.45Z" transform="translate(-43 -163.41)"/><path d="M365.47,289V298h-4V276.41h9.11c4.61,0,7.08,2.52,7.08,5.87a5,5,0,0,1-3.32,5.09c1.31.42,2.89,1.6,2.89,5.42v1a16.31,16.31,0,0,0,.31,4.17h-3.86a15.15,15.15,0,0,1-.42-4.77v-.37c0-2.6-.69-3.79-4.3-3.79Zm0-3.26h4.18c2.81,0,4-1.06,4-3.08s-1.26-3-3.77-3h-4.36Z" transform="translate(-43 -163.41)"/></svg>