<svg width="42" height="45" viewBox="0 0 42 45" fill="none" xmlns="http://www.w3.org/2000/svg">
<path d="M11.6667 39.375C9.8 39.375 7.93333 37.4062 7 36.5625C2.33333 32.625 0.933333 31.2188 0 30.375V42.1875C0 43.7405 1.0449 45 2.33333 45H21C22.2884 45 23.3333 43.7405 23.3333 42.1875V30.375C22.4 31.2188 21 32.625 16.3333 36.5625C15.4 37.4062 13.5333 39.375 11.6667 39.375ZM21 22.5H2.33333C1.0449 22.5 0 23.7595 0 25.3125V26.7188C1.86667 28.4062 1.63333 28.4062 8.4 34.3125C9.1 34.875 10.5 36.5625 11.6667 36.5625C12.8333 36.5625 14.2333 34.875 14.9333 34.5938C21.7 28.6875 21.4667 28.6875 23.3333 27V25.3125C23.3333 23.7595 22.2884 22.5 21 22.5ZM39.6667 14.0625H16.3333C15.0449 14.0625 14 15.322 14 16.875V19.6875H21C23.4216 19.6875 25.418 21.9217 25.6455 24.7693L25.6667 24.75V36.5625H39.6667C40.9551 36.5625 42 35.303 42 33.75V16.875C42 15.322 40.9551 14.0625 39.6667 14.0625ZM37.3333 25.3125H32.6667V19.6875H37.3333V25.3125ZM11.6667 16.875C11.6667 13.7733 13.7601 11.25 16.3333 11.25H32.6667V2.8125C32.6667 1.25947 31.6218 0 30.3333 0H7C5.71156 0 4.66667 1.25947 4.66667 2.8125V19.6875H11.6667V16.875Z" fill="#F1F1F1"/>
</svg>
